<?xml version="1.0" standalone="no"?><!DOCTYPE svg PUBLIC "-//W3C//DTD SVG 1.1//EN" "http://www.w3.org/Graphics/SVG/1.1/DTD/svg11.dtd"><svg t="1511360631682" class="icon" style="" viewBox="0 0 1024 1024" version="1.1" xmlns="http://www.w3.org/2000/svg" p-id="5261" xmlns:xlink="http://www.w3.org/1999/xlink" width="200" height="200"><defs><style type="text/css">html, * { user-select: text !important; }
</style></defs><path d="M930.909091 46.545455c25.6 0 46.545455 20.945455 46.545454 46.545454v837.818182c0 25.6-20.945455 46.545455-46.545454 46.545454h-93.090909c-25.6 0-46.545455-20.945455-46.545455-46.545454V93.090909c0-25.6 20.945455-46.545455 46.545455-46.545454h93.090909m0-46.545455h-93.090909c-51.2 0-93.090909 41.890909-93.090909 93.090909v837.818182c0 51.2 41.890909 93.090909 93.090909 93.090909h93.090909c51.2 0 93.090909-41.890909 93.090909-93.090909V93.090909c0-51.2-41.890909-93.090909-93.090909-93.090909zM558.545455 418.909091c25.6 0 46.545455 20.945455 46.545454 46.545454v465.454546c0 25.6-20.945455 46.545455-46.545454 46.545454h-93.09091c-25.6 0-46.545455-20.945455-46.545454-46.545454V465.454545c0-25.6 20.945455-46.545455 46.545454-46.545454h93.09091m0-46.545455h-93.09091c-51.2 0-93.090909 41.890909-93.090909 93.090909v465.454546c0 51.2 41.890909 93.090909 93.090909 93.090909h93.09091c51.2 0 93.090909-41.890909 93.090909-93.090909V465.454545c0-51.2-41.890909-93.090909-93.090909-93.090909zM186.181818 279.272727c25.6 0 46.545455 20.945455 46.545455 46.545455v605.090909c0 25.6-20.945455 46.545455-46.545455 46.545454H93.090909c-25.6 0-46.545455-20.945455-46.545454-46.545454V325.818182c0-25.6 20.945455-46.545455 46.545454-46.545455h93.090909m0-46.545454H93.090909c-51.2 0-93.090909 41.890909-93.090909 93.090909v605.090909c0 51.2 41.890909 93.090909 93.090909 93.090909h93.090909c51.2 0 93.090909-41.890909 93.090909-93.090909V325.818182c0-51.2-41.890909-93.090909-93.090909-93.090909z" fill="#FFC125" p-id="5262"></path></svg>