<?xml version="1.0" standalone="no"?><!DOCTYPE svg PUBLIC "-//W3C//DTD SVG 1.1//EN" "http://www.w3.org/Graphics/SVG/1.1/DTD/svg11.dtd"><svg t="1512567647510" class="icon" style="" viewBox="0 0 1024 1024" version="1.1" xmlns="http://www.w3.org/2000/svg" p-id="2754" xmlns:xlink="http://www.w3.org/1999/xlink" width="200" height="200"><defs><style type="text/css"></style></defs><path d="M408.768871 500.875638c9.15859 9.141194 21.638833 14.550391 35.357276 14.550391 13.736862 0 26.00528-5.41022 35.377742-14.550391 9.138124-8.750291 14.547321-21.423939 14.547321-35.374672 0-13.31219-5.814426-25.985838-14.547321-35.357276l-0.425695 0c-8.945743-8.732895-21.214161-14.143115-34.951023-14.143115-13.718443 0-26.198685 5.41022-35.357276 14.143115l0 0c-8.945743 9.371438-14.548344 22.045085-14.548344 35.357276C394.220526 479.238852 399.823128 491.717048 408.768871 500.875638L408.768871 500.875638 408.768871 500.875638zM433.731402 455.107245 433.731402 455.107245c2.491751-2.491751 6.027274-4.1536 10.394744-4.1536 4.174066 0 7.922437 1.661849 10.414187 4.1536 2.491751 2.704598 4.1536 6.66684 4.1536 10.393721 0 4.175089-1.661849 7.898901-4.1536 10.82044-2.491751 2.300392-6.241145 3.748371-10.414187 3.748371-4.367471 0-8.093329-1.447978-10.394744-3.748371-2.704598-2.921539-4.1536-6.64535-4.1536-10.82044C429.577802 461.774085 431.025781 457.811844 433.731402 455.107245L433.731402 455.107245zM408.768871 633.784694 408.768871 633.784694c9.15859 8.945743 21.638833 14.550391 35.357276 14.550391 13.736862 0 26.00528-5.604648 34.951023-14.550391l0.425695-0.212848c8.732895-9.15859 14.547321-21.636786 14.547321-35.144428 0-13.947663-5.814426-26.216081-14.547321-35.374672l-0.425695 0c-8.945743-8.927323-21.214161-14.547321-34.951023-14.547321-13.718443 0-26.198685 5.619998-35.357276 14.547321l0 0c-8.945743 9.15859-14.548344 21.427008-14.548344 35.374672 0 13.507642 5.602601 25.984814 14.548344 35.144428L408.768871 633.784694 408.768871 633.784694zM433.731402 588.015278 433.731402 588.015278l0-0.191358c2.491751-2.51324 6.027274-4.175089 10.394744-4.175089 4.174066 0 7.922437 1.661849 10.414187 4.175089l0 0.191358c2.491751 2.704598 4.1536 6.241145 4.1536 10.412141 0 3.943822-1.661849 7.692193-4.1536 10.397814l0 0c-2.491751 2.704598-6.241145 4.366448-10.414187 4.366448-4.367471 0-7.902994-1.661849-10.394744-4.366448l0 0c-2.704598-2.704598-4.1536-6.453992-4.1536-10.397814C429.577802 594.256422 431.025781 590.720899 433.731402 588.015278L433.731402 588.015278zM679.378102 500.875638 679.378102 500.875638c8.945743 9.141194 21.427008 14.550391 35.165918 14.550391 14.144138 0 26.198685-5.41022 35.144428-14.550391 9.371438-8.750291 14.782681-21.423939 14.782681-35.374672 0-13.31219-5.411243-25.985838-14.782681-35.357276l0 0c-8.945743-8.732895-21.425985-14.143115-35.144428-14.143115-13.525038 0-26.219151 5.41022-35.165918 14.143115l0 0c-8.945743 9.371438-14.760169 22.045085-14.760169 35.357276 0 13.737886 5.814426 26.216081 14.56881 35.374672L679.378102 500.875638 679.378102 500.875638zM704.149275 455.107245 704.149275 455.107245c2.491751-2.491751 6.220678-4.1536 10.393721-4.1536 4.1536 0 7.90197 1.661849 10.393721 4.1536 2.918469 2.704598 4.1536 6.66684 4.1536 10.393721 0 4.175089-1.235131 7.898901-4.1536 10.82044-2.491751 2.300392-6.241145 3.748371-10.393721 3.748371-4.174066 0-7.90197-1.447978-10.393721-3.748371-2.512217-2.921539-4.387937-6.64535-4.387937-10.82044C699.761338 461.774085 701.637058 457.811844 704.149275 455.107245L704.149275 455.107245zM543.977295 500.875638 543.977295 500.875638c9.15859 9.141194 21.639856 14.550391 35.357276 14.550391 13.737886 0 26.219151-5.41022 35.357276-14.550391 8.732895-8.750291 14.56881-21.423939 14.56881-35.374672 0-13.31219-5.835915-25.985838-14.56881-35.357276l-0.191358 0c-9.15859-8.732895-21.853727-14.143115-35.165918-14.143115-13.716396 0-26.198685 5.41022-35.357276 14.143115l0 0c-8.945743 9.371438-14.56881 22.045085-14.56881 35.357276C529.408485 479.238852 535.031553 491.717048 543.977295 500.875638L543.977295 500.875638 543.977295 500.875638zM568.94085 455.107245 568.94085 455.107245c2.490727-2.491751 6.240121-4.1536 10.392698-4.1536 4.1536 0 7.90197 1.661849 10.393721 4.1536l0 0c2.918469 2.704598 4.579295 6.66684 4.579295 10.393721 0 4.175089-1.661849 7.898901-4.579295 10.82044-2.491751 2.300392-6.241145 3.748371-10.393721 3.748371-4.1536 0-7.90197-1.447978-10.392698-3.748371-2.919493-2.921539-4.367471-6.64535-4.367471-10.82044C564.573379 461.774085 566.022381 457.811844 568.94085 455.107245L568.94085 455.107245zM408.768871 766.267031 408.768871 766.267031c9.15859 9.15859 21.638833 14.998599 35.357276 14.998599 13.736862 0 26.00528-5.838985 34.951023-14.998599l0.425695 0c8.732895-8.921183 14.547321-21.615297 14.547321-34.93158 0-13.926174-5.814426-26.624381-14.547321-35.357276l-0.425695 0c-8.945743-9.15859-21.214161-14.56574-34.951023-14.56574-13.718443 0-26.198685 5.40715-35.357276 14.56574l0 0c-8.945743 8.732895-14.548344 21.431102-14.548344 35.357276C394.220526 744.651734 399.823128 757.346871 408.768871 766.267031L408.768871 766.267031 408.768871 766.267031zM433.731402 720.945823 433.731402 720.945823c2.491751-2.918469 6.027274-4.579295 10.394744-4.579295 4.174066 0 7.922437 1.661849 10.414187 4.579295 2.491751 2.278903 4.1536 6.027274 4.1536 10.390651 0 4.15667-1.661849 7.479345-4.1536 10.397814l0 0c-2.491751 2.491751-6.241145 4.1536-10.414187 4.1536-4.367471 0-7.902994-1.660826-10.394744-4.1536l0 0c-2.704598-2.918469-4.1536-6.241145-4.1536-10.397814C429.577802 726.973096 431.025781 723.224726 433.731402 720.945823L433.731402 720.945823zM863.46884 130.631176 863.46884 130.631176 160.01132 130.631176c-16.23066 0-29.328979 13.099343-29.328979 29.328979l0 703.244672c0 16.23066 13.099343 29.328979 29.328979 29.328979l703.45752 0c16.018835 0 29.116131-13.099343 29.116131-29.328979L892.584971 159.960155C892.585995 143.729495 879.487675 130.631176 863.46884 130.631176L863.46884 130.631176zM834.139861 833.875848 834.139861 833.875848 189.532681 833.875848 189.532681 360.260064l644.60718 0L834.139861 833.875848 834.139861 833.875848zM834.139861 324.902788 834.139861 324.902788 189.532681 324.902788 189.532681 189.289134l57.423851 0 0 43.663452c0 16.23066 12.886495 29.137621 29.330002 29.137621 16.420995 0 29.327956-12.907984 29.327956-29.137621l0-43.663452 98.168834 0 0 43.663452c0 16.23066 13.31219 29.137621 29.54285 29.137621 16.20917 0 29.117155-12.907984 29.117155-29.137621l0-43.663452 98.381681 0 0 43.663452c0 16.23066 13.099343 29.137621 29.328979 29.137621 16.016789 0 29.116131-12.907984 29.116131-29.137621l0-43.663452 98.595552 0 0 43.663452c0 16.23066 12.906961 29.137621 29.116131 29.137621 16.23066 0 29.54285-12.907984 29.54285-29.137621l0-43.663452 57.615209 0L834.139861 324.902788 834.139861 324.902788zM543.977295 766.267031 543.977295 766.267031c9.15859 9.15859 21.639856 14.998599 35.357276 14.998599 13.31219 0 26.006304-5.838985 35.165918-14.998599l0.191358 0c8.732895-8.921183 14.56881-21.615297 14.56881-34.93158 0-13.926174-5.835915-26.624381-14.56881-35.357276l-0.191358 0c-9.15859-9.15859-21.853727-14.56574-35.165918-14.56574-13.716396 0-26.198685 5.40715-35.357276 14.56574l0 0c-8.945743 8.732895-14.56881 21.431102-14.56881 35.357276C529.408485 744.651734 535.031553 757.346871 543.977295 766.267031L543.977295 766.267031 543.977295 766.267031zM568.94085 720.945823 568.94085 720.945823c2.490727-2.918469 6.240121-4.579295 10.392698-4.579295 4.1536 0 7.90197 1.661849 10.393721 4.579295l0 0c2.918469 2.278903 4.579295 6.027274 4.579295 10.390651 0 4.15667-1.661849 7.479345-4.579295 10.397814l0 0c-2.491751 2.491751-6.241145 4.1536-10.393721 4.1536-4.1536 0-7.90197-1.660826-10.392698-4.1536l0 0c-2.919493-2.918469-4.367471-6.241145-4.367471-10.397814C564.573379 726.973096 566.022381 723.224726 568.94085 720.945823L568.94085 720.945823zM273.580912 633.784694 273.580912 633.784694c9.137101 8.945743 21.427008 14.550391 35.357276 14.550391 13.716396 0 26.006304-5.604648 34.93158-14.550391l0.425695-0.212848c9.15859-9.15859 14.56881-21.636786 14.56881-35.144428 0-13.947663-5.41022-26.216081-14.56881-35.374672l-0.425695 0c-8.924253-8.927323-21.214161-14.547321-34.93158-14.547321-13.930267 0-26.219151 5.619998-35.357276 14.547321-8.732895 9.15859-14.56881 21.427008-14.56881 35.374672 0 13.507642 5.835915 25.984814 14.56881 35.144428L273.580912 633.784694 273.580912 633.784694zM298.543444 588.015278 298.543444 588.015278l0-0.191358c2.491751-2.51324 6.241145-4.175089 10.393721-4.175089s7.689123 1.661849 10.393721 4.175089l0 0.191358c2.491751 2.704598 4.1536 6.241145 4.1536 10.412141 0 3.943822-1.661849 7.692193-4.1536 10.397814l0 0c-2.704598 2.704598-6.241145 4.366448-10.393721 4.366448s-7.90197-1.661849-10.393721-4.366448l0 0c-2.704598-2.704598-4.578272-6.453992-4.578272-10.397814C293.965172 594.256422 295.838845 590.720899 298.543444 588.015278L298.543444 588.015278zM273.580912 766.267031 273.580912 766.267031c9.137101 9.15859 21.427008 14.998599 35.357276 14.998599 13.716396 0 26.006304-5.838985 34.93158-14.998599l0.425695 0c9.15859-8.921183 14.56881-21.615297 14.56881-34.93158 0-13.926174-5.41022-26.624381-14.56881-35.357276l-0.425695 0c-8.924253-9.15859-21.214161-14.56574-34.93158-14.56574-13.930267 0-26.219151 5.40715-35.357276 14.56574l0 0c-8.732895 8.732895-14.56881 21.431102-14.56881 35.357276C259.011078 744.651734 264.848017 757.346871 273.580912 766.267031L273.580912 766.267031zM298.543444 720.945823 298.543444 720.945823c2.491751-2.918469 6.241145-4.579295 10.393721-4.579295s7.689123 1.661849 10.393721 4.579295l0 0c2.491751 2.278903 4.1536 6.027274 4.1536 10.390651 0 4.15667-1.661849 7.479345-4.1536 10.397814l0 0c-2.704598 2.491751-6.241145 4.1536-10.393721 4.1536s-7.90197-1.660826-10.393721-4.1536l0 0c-2.704598-2.918469-4.578272-6.241145-4.578272-10.397814C293.965172 726.973096 295.838845 723.224726 298.543444 720.945823L298.543444 720.945823zM543.977295 633.784694 543.977295 633.784694c9.15859 8.945743 21.639856 14.550391 35.357276 14.550391 13.31219 0 26.006304-5.604648 35.165918-14.550391l0.191358-0.212848c8.732895-9.15859 14.56881-21.636786 14.56881-35.144428 0-13.947663-5.835915-26.216081-14.56881-35.374672l-0.191358 0c-9.15859-8.927323-21.853727-14.547321-35.165918-14.547321-13.716396 0-26.198685 5.619998-35.357276 14.547321l0 0c-8.945743 9.15859-14.56881 21.427008-14.56881 35.374672 0 13.507642 5.623068 25.984814 14.56881 35.144428L543.977295 633.784694 543.977295 633.784694zM568.94085 588.015278 568.94085 588.015278l0-0.191358c2.490727-2.51324 6.240121-4.175089 10.392698-4.175089 4.1536 0 7.90197 1.661849 10.393721 4.175089l0 0.191358c2.918469 2.704598 4.579295 6.241145 4.579295 10.412141 0 3.943822-1.661849 7.692193-4.579295 10.397814l0 0c-2.491751 2.704598-6.241145 4.366448-10.393721 4.366448-4.1536 0-7.90197-1.661849-10.392698-4.366448l0 0c-2.919493-2.704598-4.367471-6.453992-4.367471-10.397814C564.573379 594.256422 566.022381 590.720899 568.94085 588.015278L568.94085 588.015278zM679.378102 633.784694 679.378102 633.784694c8.945743 8.945743 21.639856 14.550391 35.165918 14.550391 13.718443 0 26.198685-5.604648 35.144428-14.550391l0-0.212848c9.371438-9.15859 14.782681-21.636786 14.782681-35.144428 0-13.947663-5.411243-26.216081-14.782681-35.374672-8.945743-8.927323-21.425985-14.547321-35.144428-14.547321-13.525038 0-26.219151 5.619998-35.165918 14.547321-8.945743 9.15859-14.760169 21.427008-14.760169 35.374672 0 13.507642 5.814426 25.984814 14.760169 35.144428L679.378102 633.784694 679.378102 633.784694zM704.149275 588.015278 704.149275 588.015278l0-0.191358c2.491751-2.51324 6.220678-4.175089 10.393721-4.175089 4.1536 0 7.90197 1.661849 10.393721 4.175089l0 0.191358c2.918469 2.704598 4.1536 6.241145 4.1536 10.412141 0 3.943822-1.235131 7.692193-4.1536 10.397814l0 0c-2.491751 2.704598-6.241145 4.366448-10.393721 4.366448-4.174066 0-7.90197-1.661849-10.393721-4.366448l0 0c-2.512217-2.704598-4.387937-6.453992-4.387937-10.397814C699.761338 594.256422 701.637058 590.720899 704.149275 588.015278L704.149275 588.015278z" p-id="2755" fill="#ffffff"></path></svg>