<?xml version="1.0" standalone="no"?><!DOCTYPE svg PUBLIC "-//W3C//DTD SVG 1.1//EN" "http://www.w3.org/Graphics/SVG/1.1/DTD/svg11.dtd"><svg t="1511360767367" class="icon" style="" viewBox="0 0 1024 1024" version="1.1" xmlns="http://www.w3.org/2000/svg" p-id="7030" xmlns:xlink="http://www.w3.org/1999/xlink" width="200" height="200"><defs><style type="text/css">html, * { user-select: text !important; }
</style></defs><path d="M952.32 191.2832a17.92 17.92 0 0 0-15.36-12.0832l-88.7296-8.704h-2.0992v-2.0992l-9.2672-94.6688a18.3296 18.3296 0 0 0-18.3296-16.5376 17.8176 17.8176 0 0 0-12.544 5.12l-101.12 97.28a74.1888 74.1888 0 0 0-22.6304 59.4432l4.608 58.8288v1.1264l-0.8192 0.8192-138.5472 143.36-2.2528 2.2528a32.7168 32.7168 0 0 0 47.4624 45.1072l142.4896-141.3632 0.8192-0.8192h1.1776l55.9104 3.6864h5.12a74.9056 74.9056 0 0 0 53.248-22.4256l97.28-99.4304a17.92 17.92 0 0 0 3.584-18.8928zM414.72 400.7936a30.72 30.72 0 0 0-9.216 1.4848C344.6272 421.4272 320.8192 465.2032 320.5632 465.92c-44.9024 67.5328-26.0096 166.1952 20.8384 209.3568a159.488 159.488 0 0 0 110.9504 44.3904c48.2304 0 92.16-20.9408 109.5168-35.072a155.5968 155.5968 0 0 0 54.6816-86.4256 31.0272 31.0272 0 0 0-5.9904-26.624 33.792 33.792 0 0 0-26.0608-12.4928 31.3344 31.3344 0 0 0-23.1424 10.24l-1.3312 1.3824a32.8704 32.8704 0 0 0-6.8608 11.3152 145.3568 145.3568 0 0 1-21.6576 38.6048 100.9664 100.9664 0 0 1-132.6592 17.6128c-49.0496-29.3888-44.7488-91.0336-43.3664-103.1168 0-1.024 0.256-1.9968 0.4608-2.9696a93.2352 93.2352 0 0 1 66.56-73.0624 29.3888 29.3888 0 0 0 18.6368-40.2432A29.3888 29.3888 0 0 0 414.72 400.7936z" p-id="7031" fill="#FFC125"></path><path d="M823.5008 461.1072a30.72 30.72 0 0 0-21.76 9.1136 30.72 30.72 0 0 0-8.8064 25.6c13.0048 103.8336-10.496 177.3568-32.5632 220.7744-23.2448 45.824-49.1008 68.096-51.5584 70.1952-78.08 87.3472-183.3472 100.4032-239.1552 100.4032a291.5328 291.5328 0 0 1-48.4864-3.4816 327.68 327.68 0 0 1-189.952-94.464c-87.04-73.6256-96.8704-208.6912-96.9728-209.92a363.1616 363.1616 0 0 1 43.7248-188.3648 372.3264 372.3264 0 0 1 122.4192-126.5664 377.2416 377.2416 0 0 1 229.1712-35.84 27.9552 27.9552 0 0 0 4.352 0.3584 29.44 29.44 0 0 0 20.48-8.3968 29.4912 29.4912 0 0 0-15.36-50.176 418.8672 418.8672 0 0 0-71.9872-5.8368 520.5504 520.5504 0 0 0-87.04 7.168C234.9056 194.56 148.8384 320.8704 147.968 322.1504a400.9984 400.9984 0 0 0-68.096 306.5856 428.8512 428.8512 0 0 0 192.6656 271.36 388.1472 388.1472 0 0 0 366.7456 10.24 414.1568 414.1568 0 0 0 208.4864-248.9344A399.0016 399.0016 0 0 0 854.1184 486.4a30.72 30.72 0 0 0-30.6176-25.2928z" p-id="7032" fill="#FFC125"></path><path d="M472.832 544.0512m-34.8672 0a34.8672 34.8672 0 1 0 69.7344 0 34.8672 34.8672 0 1 0-69.7344 0Z" p-id="7033" fill="#FFC125"></path></svg>