<?xml version="1.0" standalone="no"?><!DOCTYPE svg PUBLIC "-//W3C//DTD SVG 1.1//EN" "http://www.w3.org/Graphics/SVG/1.1/DTD/svg11.dtd"><svg t="1511360948997" class="icon" style="" viewBox="0 0 1024 1024" version="1.1" xmlns="http://www.w3.org/2000/svg" p-id="7258" xmlns:xlink="http://www.w3.org/1999/xlink" width="200" height="200"><defs><style type="text/css">html, * { user-select: text !important; }
</style></defs><path d="M500.4544 466.688l168.96-172.4672-8.7296-113.0496L850.0352 0l16.0256 162.3296 157.312 15.9488L841.2928 363.776l-109.2352-7.2448L561.6256 524.672z" p-id="7259" fill="#ffffff"></path><path d="M490.368 493.9776a41.984 41.984 0 0 0 21.12 36.4032 42.4192 42.4192 0 0 0 42.24 0 41.984 41.984 0 0 0 21.12-36.4032 42.1376 42.1376 0 0 0-42.24-42.0352c-23.3344 0-42.24 18.816-42.24 42.0352z" p-id="7260" fill="#ffffff"></path><path d="M516.608 356.16l-70.976 80.0384s-69.4016 7.424-88.3328 88.4736c0 0-12.6208 84.1856 50.4704 121.856 0 0 88.3328 58.0608 154.5856-20.416 0 0 20.5056-25.1008 28.3904-53.3632l75.7248-78.7712s41.0112 135.2704-63.104 209.0496c0 0-108.8384 95.744-264.9984-9.408 0 0-116.7232-102.0288-28.3904-251.136 0 0 53.632-100.4544 206.6304-86.3232z" p-id="7261" fill="#ffffff"></path><path d="M858.9056 459.7376l63.104-62.7712s53.632 134.976 11.0336 279.3728c0 0-47.3216 196.1984-250.8032 298.2272 0 0-201.9072 117.7088-441.664-12.5568 0 0-184.5632-100.4544-231.8848-324.9024 0 0-47.3088-185.216 82.0352-367.2832 0 0 102.528-152.2432 279.1936-180.5056 0 0 148.2752-28.2496 258.688 17.28l-63.104 12.544-111.9872 6.272-167.2064 51.8016-97.792 48.6656-66.2528 103.5904-39.424 105.1648-18.944 114.2272 18.944 129.0496 33.1136 97.3184 78.8736 86.3232 99.3792 76.9024 118.2976 36.096 178.24-21.9648 162.4704-76.9152 86.7584-141.248 58.368-122.432 12.6208-97.3184-52.0576-54.9376z" p-id="7262" fill="#ffffff"></path><path d="M567.0912 166.2336s-155.9936-36.096-290.1504 39.232c0 0-93.952 55.232-145.2032 149.3248 0 0-61.2864 104.3712-52.0576 222.6688 0 0 11.0336 160.0896 115.1488 247.9872 0 0 72.5504 86.336 225.5616 111.4496 0 0 205.0944 37.6704 341.5296-114.5856 0 0 136.4224-111.4368 96.9856-362.5728l45.7472-7.7824 23.6544 48.6016-11.0336 116.1472s-22.0928 80.0512-23.6672 84.7488c-1.5744 4.7104-41.0112 76.9152-42.5856 83.2-1.5744 6.272-52.0576 91.0208-52.0576 91.0208l-58.368 42.3808-86.7456 40.8064-219.264 42.3808-123.0336-39.232-127.7696-59.648-93.056-128.704L52.864 621.4144l-6.3104-127.4368 37.8624-148.8128 61.5168-95.744 83.5968-72.192 145.1136-59.648 101.0432-15.6928h99.1616l53.76 4.6976-61.5168 59.648z" p-id="7263" fill="#ffffff"></path></svg>