<?xml version="1.0" standalone="no"?><!DOCTYPE svg PUBLIC "-//W3C//DTD SVG 1.1//EN" "http://www.w3.org/Graphics/SVG/1.1/DTD/svg11.dtd"><svg t="1511360475310" class="icon" style="" viewBox="0 0 1024 1024" version="1.1" xmlns="http://www.w3.org/2000/svg" p-id="3086" xmlns:xlink="http://www.w3.org/1999/xlink" width="200" height="200"><defs><style type="text/css">html, * { user-select: text !important; }
</style></defs><path d="M810.7 362.7c0-165.8-132.6-298.4-298.4-298.4S213.8 196.9 213.8 362.7c0 112.7 59.7 208.9 152.5 258.7-126 49.7-222.2 159.2-248.7 298.4-3.3 16.6 6.6 36.5 26.5 39.8h6.6c16.6 0 29.8-9.9 33.2-26.5 29.8-155.9 165.8-268.6 325-271.9h6.6c162.5-0.1 295.2-132.7 295.2-298.5z m-530.6 0c0-129.3 102.8-232.1 232.1-232.1s232.1 102.8 232.1 232.1c0 126-102.8 228.8-228.8 232.1h-9.9c-126-3.3-225.5-106.1-225.5-232.1z m451 301.7c-16.6-9.9-36.5-6.6-46.4 9.9-9.9 16.6-6.6 36.5 9.9 46.4 76.3 53.1 129.3 126 145.9 212.2 3.3 16.6 16.6 26.5 33.2 26.5h6.6c16.6-3.3 29.8-19.9 26.5-39.8-19.9-102.6-82.9-192.2-175.7-255.2z" p-id="3087" fill="#FFC125"></path></svg>