<?xml version="1.0" standalone="no"?><!DOCTYPE svg PUBLIC "-//W3C//DTD SVG 1.1//EN" "http://www.w3.org/Graphics/SVG/1.1/DTD/svg11.dtd"><svg t="1511360966515" class="icon" style="" viewBox="0 0 1024 1024" version="1.1" xmlns="http://www.w3.org/2000/svg" p-id="7985" xmlns:xlink="http://www.w3.org/1999/xlink" width="200" height="200"><defs><style type="text/css">html, * { user-select: text !important; }
</style></defs><path d="M660.992 168.1408c-39.8336-41.6768-92.9792-64.7168-149.504-64.7168s-109.6704 22.9376-149.504 64.7168c-39.5264 41.3696-61.2352 96.256-61.2352 154.624s21.8112 113.2544 61.2352 154.624c11.0592 11.5712 23.04 21.6064 35.9424 30.208-43.52 14.848-92.8768 40.0384-136.192 82.944-71.68 70.9632-108.1344 172.032-108.3392 300.2368 0 15.6672 12.5952 28.3648 28.2624 28.3648h0.1024c15.5648 0 28.2624-12.5952 28.2624-28.2624 0.3072-144.9984 50.688-247.3984 149.7088-304.3328 75.1616-43.2128 152.1664-43.6224 153.2928-43.6224h0.1024c2.7648 0 5.5296-0.4096 8.0896-1.1264 52.8384-2.4576 102.1952-25.1904 139.776-64.4096 39.5264-41.3696 61.2352-96.256 61.2352-154.624s-21.7088-113.2544-61.2352-154.624zM511.488 485.376c-84.992 0-154.2144-73.0112-154.2144-162.7136s69.12-162.7136 154.2144-162.7136 154.2144 73.0112 154.2144 162.7136S596.48 485.376 511.488 485.376zM743.5264 564.0192c-13.5168-7.8848-30.8224-3.3792-38.7072 10.0352-7.8848 13.5168-3.3792 30.8224 10.0352 38.7072 0.2048 0.1024 23.2448 14.7456 46.6944 53.4528C785.5104 705.6384 814.08 777.216 814.08 894.3616c0 15.6672 12.6976 28.2624 28.2624 28.2624s28.2624-12.6976 28.2624-28.2624c0-252.7232-121.9584-327.2704-127.0784-330.3424z" p-id="7986" fill="#ffffff"></path></svg>